<mxfile host="app.diagrams.net" modified="2021-06-04T08:14:33.021Z" agent="5.0 (Macintosh; Intel Mac OS X 10_15_7) AppleWebKit/537.36 (KHTML, like Gecko) Chrome/90.0.4430.212 Safari/537.36" etag="Pm87IzcNFPvlsXYgJAf0" version="14.6.13" type="github">
  <diagram name="Page-1" id="13e1069c-82ec-6db2-03f1-153e76fe0fe0">
    <mxGraphModel dx="786" dy="457" grid="1" gridSize="10" guides="1" tooltips="1" connect="1" arrows="1" fold="1" page="1" pageScale="1" pageWidth="1100" pageHeight="850" background="#ffffff" math="0" shadow="0">
      <root>
        <mxCell id="0" />
        <mxCell id="1" parent="0" />
        <mxCell id="G0kBllWM4XBfNNBUBDi2-18" value=":Object" style="shape=umlLifeline;perimeter=lifelinePerimeter;whiteSpace=wrap;html=1;container=1;collapsible=0;recursiveResize=0;outlineConnect=0;" parent="1" vertex="1">
          <mxGeometry x="27" y="39" width="100" height="300" as="geometry" />
        </mxCell>
        <mxCell id="G0kBllWM4XBfNNBUBDi2-16" value="«actor»&lt;br&gt;&lt;b&gt;GVBM&lt;/b&gt;" style="html=1;" parent="1" vertex="1">
          <mxGeometry x="2" y="39" width="150" height="40" as="geometry" />
        </mxCell>
        <mxCell id="G0kBllWM4XBfNNBUBDi2-21" value=":Object" style="shape=umlLifeline;perimeter=lifelinePerimeter;whiteSpace=wrap;html=1;container=1;collapsible=0;recursiveResize=0;outlineConnect=0;" parent="1" vertex="1">
          <mxGeometry x="166" y="40" width="148" height="299" as="geometry" />
        </mxCell>
        <mxCell id="G0kBllWM4XBfNNBUBDi2-22" value="«boundary»&lt;br&gt;&lt;b&gt;MarkManageView&lt;/b&gt;" style="html=1;" parent="G0kBllWM4XBfNNBUBDi2-21" vertex="1">
          <mxGeometry width="150" height="40" as="geometry" />
        </mxCell>
        <mxCell id="G0kBllWM4XBfNNBUBDi2-32" value="" style="html=1;points=[];perimeter=orthogonalPerimeter;" parent="G0kBllWM4XBfNNBUBDi2-21" vertex="1">
          <mxGeometry x="70" y="60" width="10" height="100" as="geometry" />
        </mxCell>
        <mxCell id="G0kBllWM4XBfNNBUBDi2-26" value=":Object" style="shape=umlLifeline;perimeter=lifelinePerimeter;whiteSpace=wrap;html=1;container=1;collapsible=0;recursiveResize=0;outlineConnect=0;" parent="1" vertex="1">
          <mxGeometry x="345" y="39" width="150" height="351" as="geometry" />
        </mxCell>
        <mxCell id="G0kBllWM4XBfNNBUBDi2-27" value="«boundary»&lt;br&gt;&lt;b&gt;CoreView - MessageBox&lt;/b&gt;" style="html=1;" parent="G0kBllWM4XBfNNBUBDi2-26" vertex="1">
          <mxGeometry x="-15" width="168" height="40" as="geometry" />
        </mxCell>
        <mxCell id="G0kBllWM4XBfNNBUBDi2-28" value=":Object" style="shape=umlLifeline;perimeter=lifelinePerimeter;whiteSpace=wrap;html=1;container=1;collapsible=0;recursiveResize=0;outlineConnect=0;" parent="1" vertex="1">
          <mxGeometry x="504" y="40" width="170" height="300" as="geometry" />
        </mxCell>
        <mxCell id="G0kBllWM4XBfNNBUBDi2-29" value="«control»&lt;br&gt;&lt;b&gt;MarkController&lt;/b&gt;" style="html=1;" parent="G0kBllWM4XBfNNBUBDi2-28" vertex="1">
          <mxGeometry width="170" height="40" as="geometry" />
        </mxCell>
        <mxCell id="G0kBllWM4XBfNNBUBDi2-35" value="" style="html=1;points=[];perimeter=orthogonalPerimeter;" parent="G0kBllWM4XBfNNBUBDi2-28" vertex="1">
          <mxGeometry x="80" y="130" width="10" height="50" as="geometry" />
        </mxCell>
        <mxCell id="G0kBllWM4XBfNNBUBDi2-30" value=":Object" style="shape=umlLifeline;perimeter=lifelinePerimeter;whiteSpace=wrap;html=1;container=1;collapsible=0;recursiveResize=0;outlineConnect=0;" parent="1" vertex="1">
          <mxGeometry x="694" y="40" width="160" height="250" as="geometry" />
        </mxCell>
        <mxCell id="G0kBllWM4XBfNNBUBDi2-31" value="«entity»&lt;br&gt;&lt;b&gt;Entity: Test, Achievement&lt;/b&gt;" style="html=1;" parent="G0kBllWM4XBfNNBUBDi2-30" vertex="1">
          <mxGeometry width="160" height="40" as="geometry" />
        </mxCell>
        <mxCell id="G0kBllWM4XBfNNBUBDi2-37" value="" style="html=1;points=[];perimeter=orthogonalPerimeter;" parent="G0kBllWM4XBfNNBUBDi2-30" vertex="1">
          <mxGeometry x="76" y="150" width="10" height="40" as="geometry" />
        </mxCell>
        <mxCell id="G0kBllWM4XBfNNBUBDi2-23" value="1: Chọn Bài kiểm tra của HS" style="html=1;verticalAlign=bottom;startArrow=oval;startFill=1;endArrow=block;startSize=8;" parent="1" target="G0kBllWM4XBfNNBUBDi2-21" edge="1">
          <mxGeometry width="60" relative="1" as="geometry">
            <mxPoint x="76.5" y="106" as="sourcePoint" />
            <mxPoint x="272" y="104" as="targetPoint" />
            <Array as="points">
              <mxPoint x="140" y="106" />
            </Array>
          </mxGeometry>
        </mxCell>
        <mxCell id="G0kBllWM4XBfNNBUBDi2-34" value="5 : Gửi thông tin Điểm&amp;nbsp;" style="html=1;verticalAlign=bottom;startArrow=oval;startFill=1;endArrow=block;startSize=8;" parent="1" edge="1">
          <mxGeometry width="60" relative="1" as="geometry">
            <mxPoint x="240" y="194" as="sourcePoint" />
            <mxPoint x="590" y="194" as="targetPoint" />
          </mxGeometry>
        </mxCell>
        <mxCell id="G0kBllWM4XBfNNBUBDi2-36" value="6 : Xác thực bài kiểm tra và học sinh" style="html=1;verticalAlign=bottom;startArrow=oval;startFill=1;endArrow=block;startSize=8;" parent="1" edge="1">
          <mxGeometry width="60" relative="1" as="geometry">
            <mxPoint x="588.5" y="205" as="sourcePoint" />
            <mxPoint x="770" y="205" as="targetPoint" />
          </mxGeometry>
        </mxCell>
        <mxCell id="G0kBllWM4XBfNNBUBDi2-40" value="" style="html=1;points=[];perimeter=orthogonalPerimeter;" parent="1" vertex="1">
          <mxGeometry x="770" y="263" width="10" height="40" as="geometry" />
        </mxCell>
        <mxCell id="G0kBllWM4XBfNNBUBDi2-41" value="7 : Xác thực thông tin" style="edgeStyle=orthogonalEdgeStyle;html=1;align=left;spacingLeft=2;endArrow=block;rounded=0;exitX=1.058;exitY=0.553;exitDx=0;exitDy=0;exitPerimeter=0;" parent="1" source="G0kBllWM4XBfNNBUBDi2-37" edge="1">
          <mxGeometry relative="1" as="geometry">
            <mxPoint x="816.5000000000002" y="211.87999999999988" as="sourcePoint" />
            <Array as="points">
              <mxPoint x="810" y="212" />
              <mxPoint x="810" y="280" />
            </Array>
            <mxPoint x="781" y="280" as="targetPoint" />
          </mxGeometry>
        </mxCell>
        <mxCell id="DVAs7N8q5XkVekkUKqxM-1" value="2 : Kiểm tra trạng thái đăng nhập" style="html=1;verticalAlign=bottom;endArrow=open;dashed=1;endSize=8;" parent="1" target="G0kBllWM4XBfNNBUBDi2-18" edge="1">
          <mxGeometry relative="1" as="geometry">
            <mxPoint x="230" y="130" as="sourcePoint" />
            <mxPoint x="340" y="230" as="targetPoint" />
            <Array as="points">
              <mxPoint x="190" y="130" />
            </Array>
          </mxGeometry>
        </mxCell>
        <mxCell id="DVAs7N8q5XkVekkUKqxM-3" value="3 : Hiển thị Form&amp;nbsp;" style="html=1;verticalAlign=bottom;startArrow=oval;startFill=1;endArrow=block;startSize=8;dashed=1;" parent="1" target="G0kBllWM4XBfNNBUBDi2-18" edge="1">
          <mxGeometry width="60" relative="1" as="geometry">
            <mxPoint x="223.5" y="160" as="sourcePoint" />
            <mxPoint x="40" y="160" as="targetPoint" />
            <Array as="points">
              <mxPoint x="103.5" y="160" />
            </Array>
          </mxGeometry>
        </mxCell>
        <mxCell id="DVAs7N8q5XkVekkUKqxM-8" value="8 : Trả kết quả Xác thực" style="html=1;verticalAlign=bottom;endArrow=open;endSize=8;exitX=-0.3;exitY=0.375;exitDx=0;exitDy=0;exitPerimeter=0;" parent="1" target="jX7y3BxdO2Qzt2mthBG1-1" edge="1">
          <mxGeometry relative="1" as="geometry">
            <mxPoint x="767" y="287" as="sourcePoint" />
            <mxPoint x="600" y="287" as="targetPoint" />
          </mxGeometry>
        </mxCell>
        <mxCell id="DVAs7N8q5XkVekkUKqxM-9" value="10 : Thông báo kết quả" style="html=1;verticalAlign=bottom;endArrow=open;dashed=1;endSize=8;" parent="1" source="jX7y3BxdO2Qzt2mthBG1-2" edge="1">
          <mxGeometry relative="1" as="geometry">
            <mxPoint x="588.5" y="354" as="sourcePoint" />
            <mxPoint x="419.66666666666674" y="354" as="targetPoint" />
            <Array as="points">
              <mxPoint x="480" y="354" />
              <mxPoint x="460" y="354" />
            </Array>
          </mxGeometry>
        </mxCell>
        <mxCell id="fi9iXgLnPPmr7-ihQAsV-2" value="4 : Nhập thông tin kết quả Điểm" style="html=1;verticalAlign=bottom;startArrow=oval;startFill=1;endArrow=block;startSize=8;" parent="1" edge="1">
          <mxGeometry width="60" relative="1" as="geometry">
            <mxPoint x="76.5" y="185" as="sourcePoint" />
            <mxPoint x="239.5" y="185" as="targetPoint" />
            <Array as="points">
              <mxPoint x="163.5" y="185" />
            </Array>
          </mxGeometry>
        </mxCell>
        <mxCell id="jX7y3BxdO2Qzt2mthBG1-1" value="" style="html=1;points=[];perimeter=orthogonalPerimeter;" parent="1" vertex="1">
          <mxGeometry x="584" y="270" width="10" height="60" as="geometry" />
        </mxCell>
        <mxCell id="jX7y3BxdO2Qzt2mthBG1-2" value=":Object" style="shape=umlLifeline;perimeter=lifelinePerimeter;whiteSpace=wrap;html=1;container=1;collapsible=0;recursiveResize=0;outlineConnect=0;" parent="1" vertex="1">
          <mxGeometry x="870" y="40" width="160" height="340" as="geometry" />
        </mxCell>
        <mxCell id="jX7y3BxdO2Qzt2mthBG1-3" value="«entity»&lt;br&gt;&lt;b&gt;Entity: Mark, MarkDetail&lt;/b&gt;" style="html=1;" parent="jX7y3BxdO2Qzt2mthBG1-2" vertex="1">
          <mxGeometry width="160" height="40" as="geometry" />
        </mxCell>
        <mxCell id="jX7y3BxdO2Qzt2mthBG1-5" value="" style="html=1;points=[];perimeter=orthogonalPerimeter;" parent="1" vertex="1">
          <mxGeometry x="945" y="310" width="10" height="50" as="geometry" />
        </mxCell>
        <mxCell id="jX7y3BxdO2Qzt2mthBG1-7" value="9 : Tạo bản ghi mới lưu lại điểm&amp;nbsp;" style="html=1;verticalAlign=bottom;startArrow=oval;startFill=1;endArrow=block;startSize=8;" parent="1" target="jX7y3BxdO2Qzt2mthBG1-2" edge="1">
          <mxGeometry width="60" relative="1" as="geometry">
            <mxPoint x="598.5" y="320" as="sourcePoint" />
            <mxPoint x="780" y="320" as="targetPoint" />
            <Array as="points">
              <mxPoint x="690" y="320" />
            </Array>
          </mxGeometry>
        </mxCell>
      </root>
    </mxGraphModel>
  </diagram>
</mxfile>
